<svg width="401" height="173" viewBox="0 0 401 173" fill="none" xmlns="http://www.w3.org/2000/svg">
<path d="M287.893 131.12L378.093 18.04H378.533V111.76H396.793V131.34H378.533V165H352.793V131.12H287.893ZM354.113 75.02L325.073 112.86L321.993 111.76H352.793V71.94L354.113 75.02Z" fill="black"/>
<ellipse cx="208.5" cy="165" rx="76.5" ry="8" fill="#D9D9D9"/>
<path d="M207 5C211.734 5 216.371 5.41267 220.879 6.20117C201.967 15.7566 189 35.3639 189 58C189 90.0325 214.967 116 247 116C261.669 116 275.065 110.553 285.279 101.573C277.647 137.803 245.5 165 207 165C162.817 165 127 129.183 127 85C127 40.8172 162.817 5 207 5Z" fill="#F0CE8C"/>
<path d="M2.89344 131.12L93.0934 18.04H93.5334V111.76H111.793V131.34H93.5334V165H67.7934V131.12H2.89344ZM69.1134 75.02L40.0734 112.86L36.9934 111.76H67.7934V71.94L69.1134 75.02Z" fill="black"/>
</svg>
