<svg width="180" height="181" viewBox="0 0 180 181" fill="none" xmlns="http://www.w3.org/2000/svg">
<path d="M97.3311 0.166992C106.86 3.53626 123.042 9.93444 136.907 18.9561C143.893 23.5015 150.348 28.7499 155.068 34.6602C159.793 40.5766 162.83 47.2225 162.83 54.5215C162.83 68.1733 163.497 90.3284 163.832 112.636C164.166 134.891 164.168 157.301 162.823 171.31L161.473 171.18L160.121 171.05C161.449 157.217 161.451 134.959 161.117 112.677C160.784 90.4465 160.115 68.1923 160.115 54.5215C160.115 48.0152 157.416 41.9486 152.947 36.3535C148.474 30.7521 142.277 25.6883 135.427 21.2314C121.942 12.4577 106.15 6.17608 96.6631 2.81055C87.1763 6.17611 71.3837 12.4578 57.8994 21.2314C51.0497 25.6883 44.8524 30.7521 40.3789 36.3535C35.9105 41.9486 33.211 48.0153 33.2109 54.5215C33.2109 68.1923 32.5425 90.4465 32.209 112.677C31.8747 134.959 31.8772 157.217 33.2051 171.05L31.8535 171.18L30.5029 171.31C29.1583 157.301 29.1603 134.891 29.4941 112.636C29.8288 90.3284 30.4961 68.1733 30.4961 54.5215C30.4962 47.2226 33.5328 40.5766 38.2578 34.6602C42.9779 28.7499 49.433 23.5015 56.4189 18.9561C70.2842 9.93454 86.4657 3.53629 95.9951 0.166992V0.0126953H97.3311V0.166992Z" fill="#1A6E6A"/>
<rect x="57.3573" y="53.8504" width="77.2854" height="64.9869" rx="17.5477" stroke="#1A6E6A" stroke-width="2.71456"/>
<rect x="68.0243" y="131.223" width="55.9521" height="23.537" rx="11.7685" stroke="#1A6E6A" stroke-width="2.71456"/>
<rect x="-1.35728" y="1.35728" width="11.9521" height="26.3003" rx="5.97605" transform="matrix(-1 0 0 1 55.9524 71.8364)" fill="#D1F7E8" stroke="#1A6E6A" stroke-width="2.71456"/>
<rect x="-1.35728" y="-1.35728" width="12.4837" height="25.2854" rx="6.24186" transform="matrix(0 -1 -1 0 107.952 129.915)" fill="#D1F7E8" stroke="#1A6E6A" stroke-width="2.71456"/>
<rect x="-1.35728" y="1.35728" width="11.9521" height="26.3003" rx="5.97605" transform="matrix(-1 0 0 1 145.285 71.8364)" fill="#D1F7E8" stroke="#1A6E6A" stroke-width="2.71456"/>
<path d="M96 44.2031V53.8748" stroke="#1A6E6A" stroke-width="2.71456"/>
<path d="M96 31.7441C99.6235 31.7441 102.643 34.802 102.643 38.6768C102.643 42.5515 99.6235 45.6094 96 45.6094C92.3765 45.6094 89.3575 42.5515 89.3574 38.6768C89.3574 34.802 92.3765 31.7441 96 31.7441Z" stroke="#1A6E6A" stroke-width="2.71456"/>
<path d="M79.2065 79.0493C84.0824 79.0493 88.062 83.0689 88.062 88.0601C88.0619 93.0512 84.0824 97.0698 79.2065 97.0698C74.3309 97.0696 70.3511 93.0511 70.3511 88.0601C70.3511 83.069 74.3308 79.0495 79.2065 79.0493Z" fill="#1A6E6A" stroke="#1A6E6A" stroke-width="2.03592"/>
<path d="M111.46 78.3813C116.336 78.3813 120.315 82.4009 120.315 87.3921C120.315 92.3832 116.336 96.4019 111.46 96.4019C106.584 96.4017 102.605 92.3831 102.604 87.3921C102.604 82.401 106.584 78.3816 111.46 78.3813Z" fill="#1A6E6A" stroke="#1A6E6A" stroke-width="2.03592"/>
<path d="M16.2871 98.0635H39.9756V120.487C39.9753 128.733 33.2914 135.417 25.0459 135.417H16.2871C8.04172 135.417 1.35767 128.733 1.35742 120.487V112.993C1.35757 104.748 8.04166 98.0636 16.2871 98.0635Z" fill="white" stroke="#1A6E6A" stroke-width="2.71456"/>
<path d="M10.0542 112.026H30.1623" stroke="#1A6E6A" stroke-width="2.71456" stroke-linecap="round"/>
<path d="M10.0542 120.275H30.1623" stroke="#1A6E6A" stroke-width="2.71456" stroke-linecap="round"/>
<rect x="14.6908" y="142.276" width="162.619" height="27.682" fill="#FCEEC4" stroke="#1A6E6A" stroke-width="2.71456"/>
<path d="M46.8877 169.564H17.1123L32 143.733L46.8877 169.564Z" stroke="#1A6E6A" stroke-width="2.81151"/>
<path d="M78.8877 169.564H49.1123L64 143.733L78.8877 169.564Z" stroke="#1A6E6A" stroke-width="2.81151"/>
<path d="M110.888 169.564H81.1123L96 143.733L110.888 169.564Z" stroke="#1A6E6A" stroke-width="2.81151"/>
<path d="M142.888 169.564H113.112L128 143.733L142.888 169.564Z" stroke="#1A6E6A" stroke-width="2.81151"/>
<path d="M174.888 169.564H145.112L160 143.733L174.888 169.564Z" stroke="#1A6E6A" stroke-width="2.81151"/>
</svg>
