<svg width="49" height="49" viewBox="0 0 49 49" fill="none" xmlns="http://www.w3.org/2000/svg">
<path d="M7.20576 30.1235L8.66457 29.7744L7.20576 30.1235ZM7.20576 18.1659L8.66457 18.515L7.20576 18.1659ZM41.7943 18.166L40.3354 18.515L41.7943 18.166ZM41.7943 30.1234L40.3354 29.7744L41.7943 30.1234ZM30.5991 41.0976L30.263 39.6357L30.5991 41.0976ZM18.4009 41.0976L18.0647 42.5594L18.4009 41.0976ZM18.4009 7.19182L18.737 8.65368L18.4009 7.19182ZM30.5991 7.19182L30.263 8.65367L30.5991 7.19182ZM7.20576 30.1235L8.66457 29.7744C7.77848 26.0714 7.77848 22.218 8.66457 18.515L7.20576 18.1659L5.74694 17.8169C4.75102 21.9788 4.75102 26.3106 5.74694 30.4725L7.20576 30.1235ZM41.7943 18.166L40.3354 18.515C41.2215 22.218 41.2215 26.0714 40.3354 29.7744L41.7943 30.1234L43.2531 30.4725C44.249 26.3106 44.249 21.9788 43.2531 17.8169L41.7943 18.166ZM30.5991 41.0976L30.263 39.6357C26.4726 40.5073 22.5274 40.5073 18.737 39.6357L18.4009 41.0976L18.0647 42.5594C22.2976 43.5327 26.7024 43.5327 30.9353 42.5594L30.5991 41.0976ZM18.4009 7.19182L18.737 8.65368C22.5274 7.78211 26.4726 7.78211 30.263 8.65367L30.5991 7.19182L30.9353 5.72997C26.7024 4.75668 22.2976 4.75668 18.0647 5.72997L18.4009 7.19182ZM18.4009 41.0976L18.737 39.6357C13.7246 38.4832 9.83197 34.653 8.66457 29.7744L7.20576 30.1235L5.74694 30.4725C7.18552 36.4844 11.9675 41.1574 18.0647 42.5594L18.4009 41.0976ZM30.5991 41.0976L30.9353 42.5594C37.0325 41.1574 41.8145 36.4844 43.2531 30.4725L41.7943 30.1234L40.3354 29.7744C39.168 34.6529 35.2754 38.4832 30.263 39.6357L30.5991 41.0976ZM30.5991 7.19182L30.263 8.65367C35.2754 9.80622 39.168 13.6365 40.3354 18.515L41.7943 18.166L43.2531 17.8169C41.8145 11.8051 37.0325 7.13196 30.9353 5.72997L30.5991 7.19182ZM18.4009 7.19182L18.0647 5.72997C11.9675 7.13196 7.18552 11.805 5.74694 17.8169L7.20576 18.1659L8.66457 18.515C9.83197 13.6365 13.7246 9.80622 18.737 8.65368L18.4009 7.19182ZM28.6611 42.5H30.1611C30.1611 39.5725 30.1644 37.5308 30.3757 35.9902C30.5806 34.496 30.9556 33.6985 31.5393 33.1264L30.4892 32.0552L29.4392 30.984C28.1947 32.2039 27.6556 33.7446 27.4035 35.5826C27.1578 37.3743 27.1611 39.659 27.1611 42.5H28.6611ZM41.1444 30.2631V28.7631C38.2436 28.7631 35.9201 28.7601 34.0996 29C32.239 29.2452 30.6795 29.7682 29.4392 30.984L30.4892 32.0552L31.5393 33.1264C32.1271 32.5501 32.9529 32.1771 34.4916 31.9743C36.0705 31.7662 38.1604 31.7631 41.1444 31.7631V30.2631Z" fill="black"/>
<path d="M18.5 18.5H24.5M18.5 24.5H28.5" stroke="black" stroke-width="3" stroke-linecap="round"/>
</svg>
