<svg width="25" height="25" viewBox="0 0 25 25" fill="none" xmlns="http://www.w3.org/2000/svg">
<path d="M12.7488 10.2373V15.0567H19.4461C19.152 16.6066 18.2695 17.919 16.9459 18.8014L20.9847 21.9352C23.3378 19.7631 24.6954 16.5728 24.6954 12.7829C24.6954 11.9005 24.6162 11.0519 24.4691 10.2374L12.7488 10.2373Z" fill="#4285F4"/>
<path d="M5.7746 14.8686L4.8637 15.5659L1.6394 18.0773C3.68708 22.1387 7.88394 24.9444 12.7485 24.9444C16.1085 24.9444 18.9254 23.8357 20.9844 21.9352L16.9457 18.8014C15.837 19.5481 14.4228 20.0006 12.7485 20.0006C9.51301 20.0006 6.764 17.8172 5.77968 14.8758L5.7746 14.8686Z" fill="#34A853"/>
<path d="M1.63942 6.92261C0.790979 8.59688 0.304565 10.4862 0.304565 12.4999C0.304565 14.5136 0.790979 16.4029 1.63942 18.0772C1.63942 18.0884 5.7801 14.8643 5.7801 14.8643C5.53121 14.1176 5.3841 13.3257 5.3841 12.4998C5.3841 11.6738 5.53121 10.8819 5.7801 10.1353L1.63942 6.92261Z" fill="#FBBC05"/>
<path d="M12.7488 5.01069C14.5816 5.01069 16.2106 5.64421 17.5116 6.86604L21.0752 3.30245C18.9144 1.28875 16.1088 0.055542 12.7488 0.055542C7.88419 0.055542 3.68708 2.84988 1.6394 6.92262L5.77995 10.1356C6.76414 7.19411 9.51326 5.01069 12.7488 5.01069Z" fill="#EA4335"/>
</svg>
