<svg width="345" height="297" viewBox="0 0 345 297" fill="none" xmlns="http://www.w3.org/2000/svg">
<path d="M0 324C4.63416e-06 273.036 12.5047 222.791 36.4981 177.347C60.4916 131.903 95.297 92.541 138.087 62.4598C180.877 32.3786 230.444 12.4263 282.761 4.22391C335.079 -3.9785 388.671 -0.199657 439.184 15.2534L417.217 81.6251C377.563 69.494 335.492 66.5275 294.421 72.9666C253.35 79.4058 214.439 95.0689 180.847 118.683C147.256 142.298 119.933 173.198 101.097 208.873C82.2619 244.548 72.4454 283.992 72.4454 324H0Z" fill="url(#paint0_linear_128_122)"/>
<path d="M105.892 331.493C110.285 296.773 122.253 263.335 141.012 233.367C159.77 203.399 184.898 177.575 214.751 157.585C244.604 137.595 278.509 123.889 314.25 117.364C349.991 110.838 386.763 111.639 422.159 119.716L409.329 171.693C381.542 165.353 352.675 164.724 324.617 169.847C296.56 174.97 269.943 185.73 246.507 201.422C223.072 217.115 203.346 237.387 188.62 260.913C173.894 284.439 164.499 310.688 161.05 337.945L105.892 331.493Z" fill="url(#paint1_linear_128_122)"/>
<defs>
<linearGradient id="paint0_linear_128_122" x1="147.778" y1="88.0777" x2="265.124" y2="210.132" gradientUnits="userSpaceOnUse">
<stop stop-color="#F0CE8C" stop-opacity="0.2"/>
<stop offset="0.49995" stop-color="#F0CE8C" stop-opacity="0.5"/>
<stop offset="0.9999" stop-color="#F0CE8C"/>
</linearGradient>
<linearGradient id="paint1_linear_128_122" x1="217.345" y1="180.555" x2="307.348" y2="274.169" gradientUnits="userSpaceOnUse">
<stop stop-color="#72D3BD" stop-opacity="0.2"/>
<stop offset="0.49995" stop-color="#72D3BD" stop-opacity="0.5"/>
<stop offset="0.9999" stop-color="#72D3BD"/>
</linearGradient>
</defs>
</svg>
