<svg width="285" height="387" viewBox="0 0 285 387" fill="none" xmlns="http://www.w3.org/2000/svg">
<path d="M285 63C285 113.964 272.495 164.209 248.502 209.653C224.508 255.097 189.703 294.459 146.913 324.54C104.123 354.621 54.5563 374.574 2.23874 382.776C-50.0788 390.978 -103.671 387.2 -154.184 371.747L-132.217 305.375C-92.5633 317.506 -50.4918 320.472 -9.42102 314.033C31.6497 307.594 70.5614 291.931 104.153 268.317C137.744 244.702 165.067 213.802 183.903 178.127C202.738 142.452 212.555 103.008 212.555 63H285Z" fill="url(#paint0_linear_128_123)"/>
<path d="M179.108 55.5068C174.715 90.2273 162.747 123.665 143.988 153.633C125.23 183.601 100.102 209.425 70.2493 229.415C40.3965 249.405 6.49083 263.111 -29.2502 269.636C-64.9913 276.162 -101.763 275.361 -137.159 267.284L-124.329 215.307C-96.5416 221.647 -67.6751 222.276 -39.6173 217.153C-11.5596 212.03 15.0573 201.27 38.4926 185.578C61.9279 169.885 81.6537 149.613 96.3799 126.087C111.106 102.561 120.501 76.3117 123.95 49.0551L179.108 55.5068Z" fill="url(#paint1_linear_128_123)"/>
<defs>
<linearGradient id="paint0_linear_128_123" x1="137.222" y1="298.922" x2="19.8756" y2="176.868" gradientUnits="userSpaceOnUse">
<stop stop-color="#F0CE8C" stop-opacity="0.2"/>
<stop offset="0.49995" stop-color="#F0CE8C" stop-opacity="0.5"/>
<stop offset="0.9999" stop-color="#F0CE8C"/>
</linearGradient>
<linearGradient id="paint1_linear_128_123" x1="67.6555" y1="206.445" x2="-22.3478" y2="112.831" gradientUnits="userSpaceOnUse">
<stop stop-color="#72D3BD" stop-opacity="0.2"/>
<stop offset="0.49995" stop-color="#72D3BD" stop-opacity="0.5"/>
<stop offset="0.9999" stop-color="#72D3BD"/>
</linearGradient>
</defs>
</svg>
