<svg width="154" height="155" viewBox="0 0 154 155" fill="none" xmlns="http://www.w3.org/2000/svg">
<path d="M75.1426 0.210449C75.4592 0.0983508 75.7894 0.10634 76.083 0.210449H76.084C76.0855 0.210978 76.0874 0.210896 76.0889 0.211426C76.0931 0.212958 76.0973 0.214736 76.1016 0.216309C78.1867 0.956258 81.8038 2.38802 84.9277 4.43213C87.9546 6.41279 91.037 9.3081 91.0371 13.0981C91.0371 16.0591 91.1811 20.8368 91.2539 25.7192C91.3259 30.548 91.3288 35.4833 91.0312 38.6011L88.2246 38.3335C88.5049 35.3967 88.508 30.6177 88.4355 25.7612C88.3639 20.9585 88.2178 16.0788 88.2178 13.0981C88.2177 10.8839 86.3406 8.72525 83.3838 6.79053C80.745 5.06393 77.6535 3.78573 75.6133 3.03955C73.573 3.78577 70.4814 5.06405 67.8428 6.79053C64.8862 8.7252 63.0089 10.884 63.0088 13.0981C63.0088 16.0788 62.8627 20.9585 62.791 25.7612C62.7186 30.6177 62.7216 35.3967 63.002 38.3335C63.0759 39.1085 62.5074 39.7966 61.7324 39.8706C60.9576 39.9442 60.2693 39.3759 60.1953 38.6011C59.8978 35.4833 59.9006 30.548 59.9727 25.7192C60.0455 20.8368 60.1894 16.0591 60.1895 13.0981C60.1896 9.30824 63.272 6.41278 66.2988 4.43213C69.4313 2.38245 73.0601 0.948657 75.1426 0.210449Z" fill="#1A6E6A"/>
<path d="M67.0576 15.5464H86.9424C101.735 15.5466 113.725 27.5375 113.726 42.3296V82.9429H40.2744V42.3296C40.2746 27.5375 52.2655 15.5466 67.0576 15.5464Z" fill="#A7F0D9" stroke="#1A6E6A" stroke-width="2.81937"/>
<path d="M67.0576 150.293H86.9424C101.735 150.293 113.725 138.302 113.726 123.51V82.897H40.2744V123.51C40.2746 138.302 52.2655 150.293 67.0576 150.293Z" fill="#FF9191" stroke="#1A6E6A" stroke-width="2.81937"/>
<path d="M57.5854 54.9764L70.7596 69.3063L96.4146 40.6465" stroke="#1A6E6A" stroke-width="2.81937" stroke-linecap="round"/>
<path d="M65.2124 105.131L88.0938 128.776" stroke="#1A6E6A" stroke-width="2.81937" stroke-linecap="round"/>
<path d="M88.0938 105.131L65.2123 128.776" stroke="#1A6E6A" stroke-width="2.81937" stroke-linecap="round"/>
<rect x="120.706" y="137.651" width="31.8495" height="12.9435" fill="#FCEEC4" stroke="#1A6E6A" stroke-width="2.81937"/>
<path d="M136.63 116.157C141.595 116.157 145.621 120.182 145.621 125.147V137.698H127.64V125.147C127.64 120.182 131.665 116.157 136.63 116.157Z" fill="#F0CE8C" stroke="#1A6E6A" stroke-width="2.81937"/>
<path d="M131.269 149.867H122.578L126.923 139.499L131.269 149.867Z" stroke="#1A6E6A" stroke-width="1.40968"/>
<path d="M150.683 149.867H141.993L146.337 139.499L150.683 149.867Z" stroke="#1A6E6A" stroke-width="1.40968"/>
<path d="M140.976 149.867H132.286L136.63 139.499L140.976 149.867Z" stroke="#1A6E6A" stroke-width="1.40968"/>
<ellipse cx="136.63" cy="114.031" rx="3.46689" ry="2.14979" fill="#1A6E6A"/>
<rect x="1.44484" y="137.651" width="31.8495" height="12.9435" fill="#FCEEC4" stroke="#1A6E6A" stroke-width="2.81937"/>
<path d="M17.3691 116.157C22.3346 116.157 26.3602 120.182 26.3604 125.147V137.698H8.37891V125.147C8.37905 120.182 12.4038 116.157 17.3691 116.157Z" fill="#F0CE8C" stroke="#1A6E6A" stroke-width="2.81937"/>
<path d="M12.0078 149.867H3.31738L7.66211 139.499L12.0078 149.867Z" stroke="#1A6E6A" stroke-width="1.40968"/>
<path d="M31.4224 149.867H22.7319L27.0767 139.499L31.4224 149.867Z" stroke="#1A6E6A" stroke-width="1.40968"/>
<path d="M21.7153 149.867H13.0249L17.3696 139.499L21.7153 149.867Z" stroke="#1A6E6A" stroke-width="1.40968"/>
<ellipse cx="17.3697" cy="114.031" rx="3.46689" ry="2.14979" fill="#1A6E6A"/>
<path d="M1.42188 151.287H151.885" stroke="#1A6E6A" stroke-width="2.81937" stroke-linecap="round"/>
</svg>
