<svg width="39" height="50" viewBox="0 0 39 50" fill="none" xmlns="http://www.w3.org/2000/svg">
<path d="M2 42.7787C2 36.746 6.24331 31.6074 12.0101 30.6566L12.5295 30.571C17.1473 29.8097 21.8527 29.8097 26.4704 30.571L26.9899 30.6566C32.7567 31.6074 37 36.746 37 42.7787C37 45.3862 34.9538 47.5 32.4297 47.5H6.57032C4.0462 47.5 2 45.3862 2 42.7787Z" stroke="black" stroke-width="3.75"/>
<path d="M29.7084 12.3438C29.7084 17.7803 25.138 22.1875 19.5001 22.1875C13.8621 22.1875 9.29172 17.7803 9.29172 12.3438C9.29172 6.9072 13.8621 2.5 19.5001 2.5C25.138 2.5 29.7084 6.9072 29.7084 12.3438Z" stroke="black" stroke-width="3.75"/>
</svg>
